<svg width="442" height="241" viewBox="0 0 442 241" fill="none" xmlns="http://www.w3.org/2000/svg">
<g opacity="0.3">
<path d="M127.013 10.6807V439.024C127.013 441.477 126.042 443.829 124.315 445.563C122.587 447.298 120.244 448.272 117.801 448.272C115.358 448.272 113.015 447.298 111.288 445.563C109.56 443.829 108.59 441.477 108.59 439.024V10.6807C108.59 8.22787 109.56 5.87553 111.288 4.14114C113.015 2.40674 115.358 1.43237 117.801 1.43237C120.244 1.43237 122.587 2.40674 124.315 4.14114C126.042 5.87553 127.013 8.22787 127.013 10.6807V10.6807Z" stroke="#39636E" stroke-miterlimit="10"/>
<path d="M162.213 10.6796V439.023C162.213 441.47 161.245 443.818 159.521 445.548C157.797 447.279 155.459 448.251 153.022 448.251C150.584 448.251 148.246 447.279 146.522 445.548C144.798 443.818 143.83 441.47 143.83 439.023V10.6796C143.83 8.23211 144.798 5.88489 146.522 4.15428C148.246 2.42366 150.584 1.45142 153.022 1.45142C155.459 1.45142 157.797 2.42366 159.521 4.15428C161.245 5.88489 162.213 8.23211 162.213 10.6796V10.6796Z" stroke="#39636E" stroke-miterlimit="10"/>
<path d="M197.434 10.6799V439.023C197.492 440.273 197.297 441.521 196.861 442.693C196.424 443.864 195.756 444.935 194.896 445.84C194.036 446.745 193.002 447.465 191.856 447.957C190.711 448.449 189.478 448.703 188.232 448.703C186.986 448.703 185.753 448.449 184.608 447.957C183.462 447.465 182.428 446.745 181.568 445.84C180.708 444.935 180.04 443.864 179.604 442.693C179.167 441.521 178.972 440.273 179.031 439.023V10.6799C178.972 9.43038 179.167 8.18205 179.604 7.01037C180.04 5.8387 180.708 4.76804 181.568 3.86316C182.428 2.95829 183.462 2.238 184.608 1.74587C185.753 1.25374 186.986 1 188.232 1C189.478 1 190.711 1.25374 191.856 1.74587C193.002 2.238 194.036 2.95829 194.896 3.86316C195.756 4.76804 196.424 5.8387 196.861 7.01037C197.297 8.18205 197.492 9.43038 197.434 10.6799V10.6799Z" stroke="#39636E" stroke-miterlimit="10"/>
<path d="M232.694 10.6807V439.024C232.694 441.477 231.723 443.829 229.996 445.563C228.268 447.298 225.925 448.272 223.482 448.272C221.039 448.272 218.696 447.298 216.968 445.563C215.241 443.829 214.271 441.477 214.271 439.024V10.6807C214.271 8.22787 215.241 5.87553 216.968 4.14114C218.696 2.40674 221.039 1.43237 223.482 1.43237C225.925 1.43237 228.268 2.40674 229.996 4.14114C231.723 5.87553 232.694 8.22787 232.694 10.6807V10.6807Z" stroke="#39636E" stroke-miterlimit="10"/>
<path d="M267.897 10.6807V439.024C267.897 441.477 266.927 443.829 265.199 445.563C263.472 447.298 261.129 448.272 258.686 448.272C256.243 448.272 253.9 447.298 252.172 445.563C250.445 443.829 249.474 441.477 249.474 439.024V10.6807C249.474 8.22787 250.445 5.87553 252.172 4.14114C253.9 2.40674 256.243 1.43237 258.686 1.43237C261.129 1.43237 263.472 2.40674 265.199 4.14114C266.927 5.87553 267.897 8.22787 267.897 10.6807V10.6807Z" stroke="#39636E" stroke-miterlimit="10"/>
<path d="M303.096 10.6807V439.024C303.096 441.477 302.126 443.829 300.398 445.563C298.671 447.298 296.328 448.272 293.885 448.272C291.442 448.272 289.099 447.298 287.371 445.563C285.644 443.829 284.673 441.477 284.673 439.024V10.6807C284.673 8.22787 285.644 5.87553 287.371 4.14114C289.099 2.40674 291.442 1.43237 293.885 1.43237C296.328 1.43237 298.671 2.40674 300.398 4.14114C302.126 5.87553 303.096 8.22787 303.096 10.6807V10.6807Z" stroke="#39636E" stroke-miterlimit="10"/>
<path d="M338.317 10.6799V439.023C338.375 440.273 338.181 441.521 337.744 442.693C337.308 443.864 336.64 444.935 335.78 445.84C334.919 446.745 333.885 447.465 332.74 447.957C331.595 448.449 330.362 448.703 329.116 448.703C327.87 448.703 326.637 448.449 325.492 447.957C324.346 447.465 323.312 446.745 322.452 445.84C321.592 444.935 320.923 443.864 320.487 442.693C320.051 441.521 319.856 440.273 319.914 439.023V10.6799C319.856 9.43038 320.051 8.18205 320.487 7.01037C320.923 5.8387 321.592 4.76804 322.452 3.86316C323.312 2.95829 324.346 2.238 325.492 1.74587C326.637 1.25374 327.87 1 329.116 1C330.362 1 331.595 1.25374 332.74 1.74587C333.885 2.238 334.919 2.95829 335.78 3.86316C336.64 4.76804 337.308 5.8387 337.744 7.01037C338.181 8.18205 338.375 9.43038 338.317 10.6799Z" stroke="#39636E" stroke-miterlimit="10"/>
<path d="M373.537 10.6799V439.023C373.595 440.273 373.4 441.521 372.964 442.693C372.527 443.864 371.859 444.935 370.999 445.84C370.139 446.745 369.105 447.465 367.959 447.957C366.814 448.449 365.581 448.703 364.335 448.703C363.089 448.703 361.856 448.449 360.711 447.957C359.566 447.465 358.531 446.745 357.671 445.84C356.811 444.935 356.143 443.864 355.707 442.693C355.27 441.521 355.075 440.273 355.134 439.023V10.6799C355.075 9.43038 355.27 8.18205 355.707 7.01037C356.143 5.8387 356.811 4.76804 357.671 3.86316C358.531 2.95829 359.566 2.238 360.711 1.74587C361.856 1.25374 363.089 1 364.335 1C365.581 1 366.814 1.25374 367.959 1.74587C369.105 2.238 370.139 2.95829 370.999 3.86316C371.859 4.76804 372.527 5.8387 372.964 7.01037C373.4 8.18205 373.595 9.43038 373.537 10.6799V10.6799Z" stroke="#39636E" stroke-miterlimit="10"/>
<path d="M91.7927 10.6807V439.024C91.7927 441.477 90.8222 443.829 89.0947 445.563C87.3672 447.298 85.0242 448.272 82.5812 448.272C80.1381 448.272 77.7951 447.298 76.0676 445.563C74.3401 443.829 73.3696 441.477 73.3696 439.024V10.6807C73.3696 8.22787 74.3401 5.87553 76.0676 4.14114C77.7951 2.40674 80.1381 1.43237 82.5812 1.43237C85.0242 1.43237 87.3672 2.40674 89.0947 4.14114C90.8222 5.87553 91.7927 8.22787 91.7927 10.6807V10.6807Z" stroke="#39636E" stroke-miterlimit="10"/>
<path d="M108.591 10.6802H91.7935V56.0754H108.591V10.6802Z" stroke="#39636E" stroke-miterlimit="10"/>
<path d="M143.832 10.6802H127.015V56.0754H143.832V10.6802Z" stroke="#39636E" stroke-miterlimit="10"/>
<path d="M179.031 10.6802H162.214V56.0754H179.031V10.6802Z" stroke="#39636E" stroke-miterlimit="10"/>
<path d="M214.253 10.6802H197.435V56.0754H214.253V10.6802Z" stroke="#39636E" stroke-miterlimit="10"/>
<path d="M249.472 10.6802H232.675V56.0754H249.472V10.6802Z" stroke="#39636E" stroke-miterlimit="10"/>
<path d="M284.694 10.6802H267.896V56.0754H284.694V10.6802Z" stroke="#39636E" stroke-miterlimit="10"/>
<path d="M319.914 10.6802H303.096V56.0754H319.914V10.6802Z" stroke="#39636E" stroke-miterlimit="10"/>
<path d="M355.135 10.6802H338.317V56.0754H355.135V10.6802Z" stroke="#39636E" stroke-miterlimit="10"/>
<path d="M73.3712 10.6802H61.3701V56.0754H73.3712V10.6802Z" stroke="#39636E" stroke-miterlimit="10"/>
<path d="M61.3914 19.9883H54.7085V46.766H61.3914V19.9883Z" stroke="#39636E" stroke-miterlimit="10"/>
<path d="M54.7052 24.845H50.0693V41.9311H54.7052V24.845Z" stroke="#39636E" stroke-miterlimit="10"/>
<path d="M385.56 10.6802H373.539V56.0754H385.56V10.6802Z" stroke="#39636E" stroke-miterlimit="10"/>
<path d="M385.54 46.7661H392.223V19.9884H385.54V46.7661Z" stroke="#39636E" stroke-miterlimit="10"/>
<path d="M392.242 41.9109H396.877V24.8247H392.242V41.9109Z" stroke="#39636E" stroke-miterlimit="10"/>
<path d="M405.147 29.6804H396.858V37.0952H405.147V29.6804Z" stroke="#39636E" stroke-miterlimit="10"/>
<path d="M408.719 31.5933H405.167V35.1596H408.719V31.5933Z" stroke="#39636E" stroke-miterlimit="10"/>
</g>
</svg>
