<svg width="24" height="25" viewBox="0 0 24 25" fill="none" xmlns="http://www.w3.org/2000/svg">
<path d="M9.12886 15.7952C12.3371 19.0034 16.6388 19.741 18.9037 17.4761C19.8197 16.56 19.8649 15.1064 19.0042 14.2456C18.9103 14.1518 18.832 14.0735 18.7215 13.9962L17.0789 12.8531C16.5261 12.4669 15.8204 12.3274 15.138 12.4778C14.4723 12.6115 13.8797 12.9848 13.4749 13.5461C13.0807 13.2518 12.703 12.9408 12.3587 12.5965C12.0144 12.2522 11.7034 11.8745 11.4091 11.4803C11.9546 11.0599 12.3437 10.483 12.4774 9.81718C12.6122 9.11918 12.4883 8.42908 12.1021 7.87631L10.959 6.2337C10.8817 6.12321 10.8035 6.04494 10.7096 5.95106C9.8488 5.09028 8.39517 5.13548 7.47916 6.0515C5.18307 8.28514 5.92072 12.587 9.12886 15.7952ZM9.76243 6.83588C9.79376 6.86721 9.8407 6.91415 9.87103 6.97771L11.0141 8.62032C11.4317 9.20446 11.244 10.0493 10.6328 10.5039L9.92368 10.9939C9.77482 11.1115 9.71974 11.3229 9.79612 11.4657C10.2566 12.2259 10.7837 12.9196 11.394 13.5299C12.0043 14.1403 12.698 14.6673 13.4582 15.1278C13.6167 15.2197 13.8283 15.1647 13.9301 15.0002L14.42 14.2911C14.8591 13.6642 15.703 13.509 16.3036 13.9098L17.9462 15.0529C17.9932 15.0998 18.0411 15.1146 18.088 15.1615C18.4637 15.5371 18.4602 16.1666 18.0439 16.5829C16.312 18.3153 12.7377 17.5388 10.0617 14.8628C7.38558 12.1867 6.60912 8.61237 8.3412 6.88029C8.75756 6.46393 9.38689 6.46034 9.76243 6.83588Z" fill="#252727"/>
</svg>
