<svg width="24" height="25" viewBox="0 0 24 25" fill="none" xmlns="http://www.w3.org/2000/svg">
<path fill-rule="evenodd" clip-rule="evenodd" d="M1.80273 7.28372C1.80273 6.95234 2.07136 6.68372 2.40273 6.68372H14.0935C14.3915 6.68372 14.6773 6.80208 14.8879 7.01277C15.0986 7.22346 15.217 7.50922 15.217 7.80718V9.30105H19.5114C19.7285 9.30111 19.9412 9.3641 20.1233 9.4824C20.3054 9.6007 20.4493 9.76925 20.5376 9.96764L22.0992 13.4815C22.0991 13.4815 22.0992 13.4816 22.0992 13.4815C22.163 13.6247 22.1962 13.7798 22.1965 13.9365L22.1965 13.9379L22.1965 16.3572C22.1965 16.5047 22.1675 16.6508 22.111 16.7871C22.0546 16.9234 21.9718 17.0473 21.8675 17.1516C21.7632 17.2559 21.6393 17.3387 21.503 17.3951C21.3667 17.4516 21.2206 17.4806 21.0731 17.4806H19.5011C19.3961 17.8775 19.1877 18.2434 18.8924 18.5386C18.4526 18.9784 17.8562 19.2254 17.2343 19.2254C16.6124 19.2254 16.016 18.9784 15.5762 18.5386C15.2809 18.2434 15.0725 17.8774 14.9675 17.4806L10.7766 17.4806C10.6716 17.8775 10.4632 18.2434 10.1679 18.5386C9.72817 18.9784 9.13174 19.2254 8.50983 19.2254C7.88792 19.2254 7.29149 18.9784 6.85174 18.5386C6.55647 18.2434 6.34808 17.8775 6.24302 17.4806H4.6711C4.52356 17.4806 4.37747 17.4516 4.24117 17.3951C4.10486 17.3387 3.98101 17.2559 3.87669 17.1516C3.77236 17.0473 3.68961 16.9234 3.63315 16.7871C3.57669 16.6508 3.54763 16.5047 3.54763 16.3572V12.0822C3.54763 11.7508 3.81626 11.4822 4.14763 11.4822C4.479 11.4822 4.74763 11.7508 4.74763 12.0822V16.2806H6.24296C6.34801 15.8837 6.55642 15.5178 6.85174 15.2224C7.29149 14.7827 7.88793 14.5356 8.50983 14.5356C9.13173 14.5356 9.72817 14.7827 10.1679 15.2224C10.4632 15.5178 10.6717 15.8837 10.7767 16.2806H14.017V9.90885C14.017 9.90625 14.017 9.90366 14.017 9.90105C14.017 9.89845 14.017 9.89585 14.017 9.89326V7.88372H2.40273C2.07136 7.88372 1.80273 7.61509 1.80273 7.28372ZM15.217 10.5011V15.6851C15.3161 15.5179 15.4364 15.3622 15.5762 15.2224C16.016 14.7827 16.6124 14.5356 17.2343 14.5356C17.8562 14.5356 18.4526 14.7827 18.8924 15.2224C19.1877 15.5178 19.3961 15.8837 19.5012 16.2806H20.9965V13.9553L19.4615 10.5011H15.217ZM2.67512 9.90105C2.67512 9.56968 2.94375 9.30105 3.27512 9.30105H6.76491C7.09628 9.30105 7.36491 9.56968 7.36491 9.90105C7.36491 10.2324 7.09628 10.5011 6.76491 10.5011H3.27512C2.94375 10.5011 2.67512 10.2324 2.67512 9.90105ZM8.50983 15.7356C8.20618 15.7356 7.91498 15.8563 7.70027 16.071C7.48556 16.2857 7.36493 16.5769 7.36493 16.8805C7.36493 17.1842 7.48556 17.4754 7.70027 17.6901C7.91498 17.9048 8.20619 18.0254 8.50983 18.0254C8.81347 18.0254 9.10468 17.9048 9.31939 17.6901C9.5341 17.4754 9.65473 17.1842 9.65473 16.8805C9.65473 16.5769 9.5341 16.2857 9.31939 16.071C9.10468 15.8563 8.81348 15.7356 8.50983 15.7356ZM17.2343 15.7356C16.9307 15.7356 16.6395 15.8563 16.4247 16.071C16.21 16.2857 16.0894 16.5769 16.0894 16.8805C16.0894 17.1842 16.21 17.4754 16.4247 17.6901C16.6395 17.9048 16.9307 18.0254 17.2343 18.0254C17.538 18.0254 17.8292 17.9048 18.0439 17.6901C18.2586 17.4754 18.3792 17.1842 18.3792 16.8805C18.3792 16.5769 18.2586 16.2857 18.0439 16.071C17.8292 15.8563 17.538 15.7356 17.2343 15.7356Z" fill="#252727"/>
</svg>
