<svg xmlns="http://www.w3.org/2000/svg" width="17" height="14" viewBox="0 0 17 14" fill="none"><script xmlns="" data-timezone-ext-el="[&quot;Etc/GMT&quot;,0,-120,null]" src="chrome-extension://cejckpjfigehbeecbbfhangbknpidcnh/data/inject-content.js"/>
<path fill-rule="evenodd" clip-rule="evenodd" d="M2.59861 1.91655C1.97916 1.91655 1.51457 2.39535 1.51457 2.94045V3.74218L8.49278 6.35901L15.4709 3.74222V2.94045C15.4709 2.39534 15.0063 1.91655 14.3869 1.91655H2.59861ZM16.6709 4.14233V2.94045C16.6709 1.69184 15.6276 0.716553 14.3869 0.716553H2.59861C1.35793 0.716553 0.314574 1.69184 0.314574 2.94045V4.14592C0.314413 4.15393 0.314413 4.16192 0.314574 4.1699V11.0599C0.314574 12.3085 1.35793 13.2838 2.59861 13.2838H14.3869C15.6276 13.2838 16.6709 12.3085 16.6709 11.0599V4.1735C16.6712 4.16313 16.6712 4.15274 16.6709 4.14233ZM15.4709 5.02382L8.70345 7.56161C8.56762 7.61255 8.41794 7.61255 8.28211 7.56161L1.51457 5.02379V11.0599C1.51457 11.605 1.97916 12.0838 2.59861 12.0838H14.3869C15.0063 12.0838 15.4709 11.605 15.4709 11.0599V5.02382Z" fill="#252727"/>
</svg>