<svg xmlns="http://www.w3.org/2000/svg" width="15" height="14" viewBox="0 0 15 14" fill="none"><script xmlns="" data-timezone-ext-el="[&quot;Etc/GMT&quot;,0,-120,null]" src="chrome-extension://cejckpjfigehbeecbbfhangbknpidcnh/data/inject-content.js"/>
<path d="M3.62007 10.8407C6.8283 14.049 11.13 14.7865 13.3949 12.5216C14.3109 11.6056 14.3561 10.1519 13.4954 9.29117C13.4015 9.19729 13.3232 9.11902 13.2127 9.04175L11.5701 7.89867C11.0173 7.51244 10.3116 7.37297 9.62924 7.52331C8.96348 7.65701 8.37094 8.03036 7.96616 8.59164C7.5719 8.2973 7.19424 7.98631 6.84994 7.64202C6.50564 7.29772 6.19466 6.92005 5.90031 6.5258C6.44578 6.10544 6.83493 5.52852 6.96865 4.86271C7.10337 4.16471 6.97951 3.47461 6.59328 2.92184L5.45021 1.27923C5.37294 1.16874 5.29467 1.09047 5.20079 0.996589C4.34001 0.135817 2.88638 0.181013 1.97037 1.09703C-0.325719 3.33067 0.411931 7.63258 3.62007 10.8407ZM4.25364 1.88141C4.28497 1.91275 4.33191 1.95969 4.36224 2.02324L5.50531 3.66585C5.92287 4.25 5.7352 5.09485 5.12405 5.54945L4.41489 6.0394C4.26603 6.15704 4.21095 6.36845 4.28733 6.51127C4.74781 7.27148 5.27487 7.96512 5.88521 8.57546C6.49556 9.18581 7.1892 9.71286 7.9494 10.1733C8.10796 10.2652 8.31948 10.2102 8.42128 10.0458L8.91123 9.33663C9.35034 8.70975 10.1942 8.55451 10.7948 8.95536L12.4374 10.0984C12.4844 10.1454 12.5323 10.1601 12.5793 10.207C12.9549 10.5827 12.9514 11.2121 12.5351 11.6285C10.8032 13.3608 7.22894 12.5844 4.55287 9.9083C1.87679 7.23222 1.10033 3.6579 2.83241 1.92582C3.24877 1.50946 3.8781 1.50587 4.25364 1.88141Z" fill="#252727"/>
</svg>