<svg width="107" height="40" viewBox="0 0 107 40" fill="none" xmlns="http://www.w3.org/2000/svg"><path d="M31.5001 5.10328V8.44081V10.0653V31.5582C31.5001 33.4013 33.046 34.8955 34.9531 34.8955C35.7588 34.8955 36.4984 34.6266 37.0859 34.1793C37.6734 34.6266 38.4128 34.8955 39.2187 34.8955C41.1258 34.8955 42.6717 33.4013 42.6717 31.5582V19.4756V18.9607V10.0653V8.44081V5.10328H40.0312V10.0653L40.0314 11.6814V18.9607V21.513V23.0573V28.3176L40.0312 31.5503C40.0312 31.9839 39.6673 32.3356 39.2187 32.3356C38.7703 32.3356 38.4069 31.9845 38.4064 31.5514V23.0573V21.513V18.9607V8.44743V5.19999C38.4062 5.19999 38.4062 5.19998 38.4062 5.2002V5.10328H35.7656V10.0653V11.6814V18.9607V21.513V23.0573V28.3176V31.5503C35.7656 31.9839 35.4017 32.3356 34.9531 32.3356C34.5047 32.3356 34.1413 31.9845 34.1406 31.5514V23.0573V21.513V18.9607V8.44743V5.19999C34.1406 5.19999 34.1404 5.19998 34.1404 5.2002V5.10328H31.5001Z" fill="#FAFAFA"></path><path d="M48.5542 18.4858V21.0381V28.3176V29.9337V34.8955H51.1945V31.5582V29.9337V21.0381V20.5232V8.44081C51.1945 6.59752 49.6486 5.10328 47.7417 5.10328H46.9292H45.1011H44.2886V8.44081V29.9337V31.5582V34.8955H46.929L46.9292 34.7988V31.5514V21.0381V18.4858V18.4781V8.43882V7.6555H47.7417C48.1903 7.6555 48.554 8.0072 48.554 8.44081V8.44765C48.554 8.44787 48.5542 8.44831 48.5542 8.44853V11.6737V11.6814V16.9417V18.4858Z" fill="#FAFAFA"></path><path d="M15.4985 8.44743C15.4992 8.01426 15.8626 7.66322 16.3107 7.66322C16.7596 7.66322 17.1232 8.0147 17.1232 8.44853V11.6812L17.1235 18.4856H15.4985V8.44743ZM18.7565 21.0378H19.7638V8.44059C19.7638 6.5973 18.2178 5.10328 16.3107 5.10328C14.4039 5.10328 12.8579 6.5973 12.8579 8.44059V31.558C12.8579 33.4013 14.4039 34.8955 16.3107 34.8955C18.2178 34.8955 19.7638 33.4013 19.7638 31.558V22.6018H17.1235V28.3174L17.1232 31.5503C17.1232 31.9839 16.7596 32.3356 16.3107 32.3356C15.8626 32.3356 15.4992 31.9845 15.4985 31.5511V21.0378H18.7565Z" fill="#FAFAFA"></path><path d="M24.015 21.5129V18.9607V11.6812V10.0651V5.10328H21.3747V8.44059V10.0651V18.9607V19.4756V31.558C21.3747 33.4013 22.9207 34.8955 24.8275 34.8955H25.64V32.3433H24.8275C24.3789 32.3433 24.0153 31.9916 24.0153 31.558V31.5511L24.015 31.5503V28.3251V28.3174V23.0571V21.5129Z" fill="#FAFAFA"></path><path d="M63.5993 -4.87236e-05H61.3594H6.91913H5.92618H2.64078H0V2.55216V16.5348L0.000223069 16.543H4.28337H6.90611H6.92393V8.44875C6.92461 8.01536 7.28803 7.66432 7.7362 7.66432C8.18505 7.66432 8.5487 8.01602 8.5487 8.44963V11.6825L8.54892 16.543L4.28337 21.7487V22.368V25.7535V31.558C4.28337 33.4013 5.82933 34.8955 7.7362 34.8955C9.64329 34.8955 11.1893 33.4013 11.1893 31.558V22.6018H8.54892V28.3174L8.5487 31.5503C8.5487 31.9839 8.18505 32.3356 7.7362 32.3356C7.28803 32.3356 6.92461 31.9845 6.92393 31.5514V22.6018L11.1893 17.3965V16.543V14.8116V8.4419C11.1893 6.86642 10.0586 5.54947 8.53979 5.19887V5.41391C8.53979 5.84752 8.17591 6.199 7.72729 6.199C7.27867 6.199 6.91479 5.84752 6.91479 5.41391V5.20351C5.40515 5.56029 4.28337 6.87282 4.28337 8.4419V13.9908H2.64078V2.55216H5.92618H6.91913H61.3594V21.0392H64V-4.87236e-05H63.5993Z" fill="#FAFAFA"></path><path d="M55.4689 8.44859C55.4696 8.01542 55.8331 7.66438 56.2814 7.66438C56.7301 7.66438 57.0937 8.01587 57.0937 8.4497V11.6824L57.0939 18.4868H55.4689V8.44859ZM61.3593 22.6019H57.0939V22.603V25.1541V28.3185L57.0937 31.5514C57.0937 31.985 56.7301 32.3367 56.2814 32.3367C55.8331 32.3367 55.4696 31.9857 55.4689 31.5523V21.039H58.7269H59.7343V8.44175C59.7343 6.59846 58.1883 5.10444 56.2814 5.10444C54.3743 5.10444 52.8284 6.59846 52.8284 8.44175V31.5592C52.8284 33.4024 54.3743 34.8967 56.2814 34.8967C58.1883 34.8967 59.7343 33.4024 59.7343 31.5592V25.1541H61.3593V37.4478H2.64057V18.1057H0V40H63.9998V22.6019H61.3593Z" fill="#FAFAFA"></path><path d="M29.8765 34.7988V31.5514V28.4483V21.0381V18.4858V18.4781V8.43882V7.6555V7.01038V5.10328H28.0482H27.236V7.01038V8.44081V28.4483V29.9337V31.5582V34.8955H29.8763H29.8765V34.7988Z" fill="#FAFAFA"></path></svg>