<svg xmlns="http://www.w3.org/2000/svg" width="24" height="25" viewBox="0 0 24 25" fill="none">
<path fill-rule="evenodd" clip-rule="evenodd" d="M6.10642 7.8712C5.48697 7.8712 5.02239 8.35 5.02239 8.8951V9.69684L12.0006 12.3137L18.9787 9.69687V8.8951C18.9787 8.35 18.5141 7.8712 17.8947 7.8712H6.10642ZM20.1787 10.097V8.8951C20.1787 7.64649 19.1354 6.6712 17.8947 6.6712H6.10642C4.86574 6.6712 3.82239 7.64649 3.82239 8.8951V10.1006C3.82223 10.1086 3.82223 10.1166 3.82239 10.1245V17.0146C3.82239 18.2632 4.86574 19.2385 6.10642 19.2385H17.8947C19.1354 19.2385 20.1787 18.2632 20.1787 17.0146V10.1281C20.179 10.1178 20.179 10.1074 20.1787 10.097ZM18.9787 10.9785L12.2113 13.5163C12.0754 13.5672 11.9258 13.5672 11.7899 13.5163L5.02239 10.9784V17.0146C5.02239 17.5597 5.48697 18.0385 6.10642 18.0385H17.8947C18.5141 18.0385 18.9787 17.5597 18.9787 17.0146V10.9785Z" fill="#252727"/>
</svg>