<svg width="65" height="65" viewBox="0 0 65 65" fill="none" xmlns="http://www.w3.org/2000/svg">
<path d="M13.375 45.9556H19.4926" stroke="#3C3E3E" stroke-width="3" stroke-linecap="round"/>
<path d="M47.375 18.3081L52.375 18.3081" stroke="#3C3E3E" stroke-width="3" stroke-linecap="round"/>
<rect x="20.9922" y="13.8081" width="7.70588" height="38.2941" rx="3.85294" stroke="#3C3E3E" stroke-width="3"/>
<rect x="29.4043" y="13.8081" width="7.70588" height="38.2941" rx="3.85294" stroke="#3C3E3E" stroke-width="3"/>
<path d="M45.5293 29.6453V17.8689C45.5293 15.6294 43.7139 13.814 41.4744 13.814V13.814C39.2176 13.814 37.3951 15.6565 37.4197 17.9131L37.7556 48.6844C37.7789 50.8143 39.5122 52.5288 41.6423 52.5287L43.5523 52.5287C44.644 52.5287 45.529 51.6437 45.529 50.552V50.552" stroke="#3C3E3E" stroke-width="3" stroke-linecap="round"/>
<path d="M51.375 40.0044C51.375 40.8328 52.0466 41.5044 52.875 41.5044C53.7034 41.5044 54.375 40.8328 54.375 40.0044H51.375ZM42.732 36.7636C42.2676 37.4497 42.4474 38.3823 43.1334 38.8466C43.8195 39.311 44.7521 39.1312 45.2164 38.4452L42.732 36.7636ZM45.4736 34.0457C45.4964 33.2176 44.8436 32.5278 44.0155 32.505C43.1874 32.4821 42.4976 33.135 42.4748 33.9631L45.4736 34.0457ZM43.875 37.6044L42.3756 37.5631C42.3574 38.2207 42.77 38.8134 43.3929 39.0248L43.875 37.6044ZM46.9287 40.2248C47.7132 40.4911 48.565 40.0709 48.8312 39.2865C49.0974 38.502 48.6773 37.6502 47.8929 37.384L46.9287 40.2248ZM48.0535 37.0044C49.9871 37.0044 51.375 38.4434 51.375 40.0044H54.375C54.375 36.5949 51.4456 34.0044 48.0535 34.0044V37.0044ZM45.2164 38.4452C45.7867 37.6025 46.8253 37.0044 48.0535 37.0044V34.0044C45.8467 34.0044 43.8699 35.0824 42.732 36.7636L45.2164 38.4452ZM42.4748 33.9631L42.3756 37.5631L45.3744 37.6457L45.4736 34.0457L42.4748 33.9631ZM43.3929 39.0248L46.9287 40.2248L47.8929 37.384L44.3571 36.184L43.3929 39.0248Z" fill="#3C3E3E"/>
<path d="M42.875 40.603C42.875 43.3645 45.1135 45.603 47.8748 45.603C49.5105 45.603 50.9628 44.8175 51.875 43.603M51.875 43.603L48.8748 42.2697M51.875 43.603L51.8746 47.603" stroke="#3C3E3E" stroke-width="3" stroke-linecap="round" stroke-linejoin="round"/>
</svg>
