<svg width="65" height="65" viewBox="0 0 65 65" fill="none" xmlns="http://www.w3.org/2000/svg">
<path d="M13.375 54.6021H19.4926" stroke="#3C3E3E" stroke-width="3" stroke-linecap="round"/>
<path d="M46.2578 27.0718L52.3755 27.0718" stroke="#3C3E3E" stroke-width="3" stroke-linecap="round"/>
<rect x="20.9922" y="22.4546" width="7.70588" height="38.2941" rx="3.85294" stroke="#3C3E3E" stroke-width="3"/>
<rect x="29.4043" y="22.4546" width="7.70588" height="38.2941" rx="3.85294" stroke="#3C3E3E" stroke-width="3"/>
<rect x="37.8164" y="22.4546" width="7.70588" height="38.2941" rx="3.85294" stroke="#3C3E3E" stroke-width="3"/>
<path d="M23.8745 17.9546C22.5412 17.4546 20.2745 15.8546 21.8745 13.4546C23.8745 10.4546 23.8745 5.95459 23.8745 2.95459" stroke="#3C3E3E" stroke-width="3" stroke-linecap="round"/>
<path d="M34.375 17.9546C32.8066 17.6213 30.1402 16.5546 32.0223 14.9546C34.375 12.9546 34.375 9.95459 34.375 7.95459" stroke="#3C3E3E" stroke-width="3" stroke-linecap="round"/>
<path d="M44.375 17.9546C42.8066 17.5213 40.1402 16.1346 42.0223 14.0546C44.375 11.4546 44.375 7.55459 44.375 4.95459" stroke="#3C3E3E" stroke-width="3" stroke-linecap="round"/>
</svg>
